<mxfile host="app.diagrams.net" agent="Mozilla/5.0 (Windows NT 10.0; Win64; x64) AppleWebKit/537.36 (KHTML, like Gecko) Chrome/134.0.0.0 Safari/537.36 Edg/134.0.0.0" version="26.1.0">
  <diagram id="C5RBs43oDa-KdzZeNtuy" name="Page-1">
    <mxGraphModel dx="872" dy="477" grid="1" gridSize="10" guides="1" tooltips="1" connect="1" arrows="1" fold="1" page="1" pageScale="1" pageWidth="827" pageHeight="1169" math="0" shadow="0">
      <root>
        <mxCell id="WIyWlLk6GJQsqaUBKTNV-0" />
        <mxCell id="WIyWlLk6GJQsqaUBKTNV-1" parent="WIyWlLk6GJQsqaUBKTNV-0" />
        <mxCell id="RM-yiGdvyLoXszBX2KKT-6" style="edgeStyle=orthogonalEdgeStyle;rounded=0;orthogonalLoop=1;jettySize=auto;html=1;exitX=0.5;exitY=1;exitDx=0;exitDy=0;entryX=0.5;entryY=0;entryDx=0;entryDy=0;" edge="1" parent="WIyWlLk6GJQsqaUBKTNV-1" source="RM-yiGdvyLoXszBX2KKT-0" target="RM-yiGdvyLoXszBX2KKT-3">
          <mxGeometry relative="1" as="geometry" />
        </mxCell>
        <mxCell id="RM-yiGdvyLoXszBX2KKT-0" value="Inicio" style="ellipse;whiteSpace=wrap;html=1;aspect=fixed;" vertex="1" parent="WIyWlLk6GJQsqaUBKTNV-1">
          <mxGeometry x="374" y="50" width="80" height="80" as="geometry" />
        </mxCell>
        <mxCell id="RM-yiGdvyLoXszBX2KKT-9" value="" style="edgeStyle=orthogonalEdgeStyle;rounded=0;orthogonalLoop=1;jettySize=auto;html=1;" edge="1" parent="WIyWlLk6GJQsqaUBKTNV-1" source="RM-yiGdvyLoXszBX2KKT-1">
          <mxGeometry relative="1" as="geometry">
            <mxPoint x="414" y="370" as="targetPoint" />
          </mxGeometry>
        </mxCell>
        <mxCell id="RM-yiGdvyLoXszBX2KKT-1" value="Ingresa un &lt;br&gt;número X" style="shape=parallelogram;perimeter=parallelogramPerimeter;whiteSpace=wrap;html=1;fixedSize=1;align=center;verticalAlign=middle;horizontal=1;" vertex="1" parent="WIyWlLk6GJQsqaUBKTNV-1">
          <mxGeometry x="347.5" y="260" width="133" height="70" as="geometry" />
        </mxCell>
        <mxCell id="RM-yiGdvyLoXszBX2KKT-7" style="edgeStyle=orthogonalEdgeStyle;rounded=0;orthogonalLoop=1;jettySize=auto;html=1;exitX=0.5;exitY=1;exitDx=0;exitDy=0;entryX=0.5;entryY=0;entryDx=0;entryDy=0;" edge="1" parent="WIyWlLk6GJQsqaUBKTNV-1" source="RM-yiGdvyLoXszBX2KKT-3" target="RM-yiGdvyLoXszBX2KKT-1">
          <mxGeometry relative="1" as="geometry" />
        </mxCell>
        <mxCell id="RM-yiGdvyLoXszBX2KKT-3" value="Solicitar el número que se desear evaluar" style="whiteSpace=wrap;html=1;" vertex="1" parent="WIyWlLk6GJQsqaUBKTNV-1">
          <mxGeometry x="354" y="160" width="120" height="60" as="geometry" />
        </mxCell>
        <mxCell id="RM-yiGdvyLoXszBX2KKT-19" style="edgeStyle=orthogonalEdgeStyle;rounded=0;orthogonalLoop=1;jettySize=auto;html=1;exitX=1;exitY=0.5;exitDx=0;exitDy=0;entryX=0;entryY=0.5;entryDx=0;entryDy=0;" edge="1" parent="WIyWlLk6GJQsqaUBKTNV-1" source="RM-yiGdvyLoXszBX2KKT-12" target="RM-yiGdvyLoXszBX2KKT-17">
          <mxGeometry relative="1" as="geometry" />
        </mxCell>
        <mxCell id="RM-yiGdvyLoXszBX2KKT-20" style="edgeStyle=orthogonalEdgeStyle;rounded=0;orthogonalLoop=1;jettySize=auto;html=1;exitX=0;exitY=0.5;exitDx=0;exitDy=0;" edge="1" parent="WIyWlLk6GJQsqaUBKTNV-1" source="RM-yiGdvyLoXszBX2KKT-12" target="RM-yiGdvyLoXszBX2KKT-18">
          <mxGeometry relative="1" as="geometry" />
        </mxCell>
        <mxCell id="RM-yiGdvyLoXszBX2KKT-12" value="¿El número x%2 es igual a 0?" style="rhombus;whiteSpace=wrap;html=1;" vertex="1" parent="WIyWlLk6GJQsqaUBKTNV-1">
          <mxGeometry x="313" y="370" width="202" height="180" as="geometry" />
        </mxCell>
        <mxCell id="RM-yiGdvyLoXszBX2KKT-25" style="edgeStyle=orthogonalEdgeStyle;rounded=0;orthogonalLoop=1;jettySize=auto;html=1;exitX=0.5;exitY=1;exitDx=0;exitDy=0;entryX=1;entryY=0.5;entryDx=0;entryDy=0;" edge="1" parent="WIyWlLk6GJQsqaUBKTNV-1" source="RM-yiGdvyLoXszBX2KKT-17" target="RM-yiGdvyLoXszBX2KKT-23">
          <mxGeometry relative="1" as="geometry" />
        </mxCell>
        <mxCell id="RM-yiGdvyLoXszBX2KKT-17" value="Decir: &quot;El número X &lt;br&gt;es par&quot;." style="shape=parallelogram;perimeter=parallelogramPerimeter;whiteSpace=wrap;html=1;fixedSize=1;" vertex="1" parent="WIyWlLk6GJQsqaUBKTNV-1">
          <mxGeometry x="630" y="420" width="160" height="80" as="geometry" />
        </mxCell>
        <mxCell id="RM-yiGdvyLoXszBX2KKT-24" style="edgeStyle=orthogonalEdgeStyle;rounded=0;orthogonalLoop=1;jettySize=auto;html=1;exitX=0.5;exitY=1;exitDx=0;exitDy=0;entryX=0;entryY=0.5;entryDx=0;entryDy=0;" edge="1" parent="WIyWlLk6GJQsqaUBKTNV-1" source="RM-yiGdvyLoXszBX2KKT-18" target="RM-yiGdvyLoXszBX2KKT-23">
          <mxGeometry relative="1" as="geometry" />
        </mxCell>
        <mxCell id="RM-yiGdvyLoXszBX2KKT-18" value="Decir: &quot;El número X es impar&quot;" style="shape=parallelogram;perimeter=parallelogramPerimeter;whiteSpace=wrap;html=1;fixedSize=1;" vertex="1" parent="WIyWlLk6GJQsqaUBKTNV-1">
          <mxGeometry x="60" y="415" width="160" height="90" as="geometry" />
        </mxCell>
        <mxCell id="RM-yiGdvyLoXszBX2KKT-21" value="Sí" style="text;html=1;align=center;verticalAlign=middle;whiteSpace=wrap;rounded=0;" vertex="1" parent="WIyWlLk6GJQsqaUBKTNV-1">
          <mxGeometry x="530" y="430" width="60" height="30" as="geometry" />
        </mxCell>
        <mxCell id="RM-yiGdvyLoXszBX2KKT-22" value="No" style="text;html=1;align=center;verticalAlign=middle;whiteSpace=wrap;rounded=0;" vertex="1" parent="WIyWlLk6GJQsqaUBKTNV-1">
          <mxGeometry x="240" y="430" width="60" height="30" as="geometry" />
        </mxCell>
        <mxCell id="RM-yiGdvyLoXszBX2KKT-23" value="Fin" style="ellipse;whiteSpace=wrap;html=1;aspect=fixed;" vertex="1" parent="WIyWlLk6GJQsqaUBKTNV-1">
          <mxGeometry x="374" y="630" width="80" height="80" as="geometry" />
        </mxCell>
      </root>
    </mxGraphModel>
  </diagram>
</mxfile>
